<mxfile host="app.diagrams.net" modified="2020-09-29T03:48:08.120Z" agent="5.0 (Windows NT 10.0; Win64; x64) AppleWebKit/537.36 (KHTML, like Gecko) Chrome/85.0.4183.121 Safari/537.36" etag="vY43Iu5P9Jiy1DyXdTk9" version="13.7.6" type="github">
  <diagram id="oVMPxl84yOYV2dbN-6uN" name="Page-1">
    <mxGraphModel dx="744" dy="349" grid="1" gridSize="10" guides="1" tooltips="1" connect="1" arrows="1" fold="1" page="1" pageScale="1" pageWidth="827" pageHeight="1169" math="0" shadow="0">
      <root>
        <mxCell id="0" />
        <mxCell id="1" parent="0" />
      </root>
    </mxGraphModel>
  </diagram>
</mxfile>
